# xmcd
#
# Track frame offsets:
#	150
#	21300
#	33132
#	48904
#	70551
#	86608
#	104120
#	118874
#	135065
#	146198
#
# Disc length: 2175 seconds
#
# Revision: 0
# Processed by: cddbd v1.5.1PL2 Copyright (c) Steve Scherf et al.
# Submitted via: dBpowerAMP V4.0
#
DISCID=84087d0a
DTITLE=Various Artist - the Heart of Christmas
DYEAR=1900
DGENRE=Blues
TTITLE0=The Little Drummer Boy
TTITLE1=Deck The Halls
TTITLE2=Away in a Manger
TTITLE3=Hark! The Herald Angels Sing
TTITLE4=O Come, All Ye Faithful
TTITLE5=O Holy Night
TTITLE6=O Little Town of Bethlehem
TTITLE7=Silent Night
TTITLE8=Joy to the World
TTITLE9=Jingle Bells
EXTD=
EXTT0=
EXTT1=
EXTT2=
EXTT3=
EXTT4=
EXTT5=
EXTT6=
EXTT7=
EXTT8=
EXTT9=
PLAYORDER=
